<?xml version="1.0" standalone="no"?><!DOCTYPE svg PUBLIC "-//W3C//DTD SVG 1.1//EN" "http://www.w3.org/Graphics/SVG/1.1/DTD/svg11.dtd"><svg t="1768268606448" class="icon" viewBox="0 0 1024 1024" version="1.1" xmlns="http://www.w3.org/2000/svg" p-id="4186" xmlns:xlink="http://www.w3.org/1999/xlink" width="200" height="200"><path d="M512 623.04c65.92 0 119.36 53.44 119.36 119.36v115.2a42.56 42.56 0 0 1-85.12 0v-115.2a34.24 34.24 0 0 0-68.48 0v115.2a42.56 42.56 0 0 1-85.12 0v-115.2c0-65.92 53.44-119.36 119.36-119.36zM785.344 512a42.56 42.56 0 0 1-42.56 42.56 42.56 42.56 0 1 1-0.384-85.12c23.872 0 42.944 19.008 42.944 42.56zM785.344 665.6a42.56 42.56 0 0 1-42.56 42.56 42.56 42.56 0 1 1-0.384-85.12c23.872 0 42.944 19.008 42.944 42.56z" p-id="4187" fill="#182ca7"></path><path d="M443.776 106.88a119.36 119.36 0 0 1 136.448 0l180.992 126.016c5.76 3.968 12.608 6.144 19.584 6.144h76.8c44.736 0 80.96 36.224 80.96 80.96v460.8c0 65.92-53.44 119.36-119.36 119.36H204.8A119.36 119.36 0 0 1 85.44 780.8V320c0-44.8 36.224-80.96 80.96-80.96h76.8c6.976 0 13.76-2.176 19.584-6.208l180.992-126.016zM531.584 176.64a34.24 34.24 0 0 0-39.168 0L311.424 302.656a119.36 119.36 0 0 1-68.224 21.504l-72.64-0.064V780.8c0 17.024 12.416 31.104 28.672 33.792l5.568 0.448h614.4c18.88 0 34.24-15.36 34.24-34.24V324.096H780.8c-20.928 0-41.408-5.44-59.392-15.808l-8.832-5.568-180.992-126.016z" p-id="4188" fill="#182ca7"></path><path d="M324.544 512a42.56 42.56 0 0 1-42.56 42.56 42.56 42.56 0 1 1-0.384-85.12c23.872 0 42.944 19.008 42.944 42.56zM324.544 665.6a42.56 42.56 0 0 1-42.56 42.56 42.56 42.56 0 1 1-0.384-85.12c23.872 0 42.944 19.008 42.944 42.56zM512 315.84a119.36 119.36 0 1 1 0 238.72 119.36 119.36 0 0 1 0-238.72z m0 85.12a34.24 34.24 0 1 0 0 68.48 34.24 34.24 0 0 0 0-68.48z" p-id="4189" fill="#182ca7"></path></svg>