<?xml version="1.0" standalone="no"?><!DOCTYPE svg PUBLIC "-//W3C//DTD SVG 1.1//EN" "http://www.w3.org/Graphics/SVG/1.1/DTD/svg11.dtd"><svg t="1768268562168" class="icon" viewBox="0 0 1024 1024" version="1.1" xmlns="http://www.w3.org/2000/svg" p-id="4014" xmlns:xlink="http://www.w3.org/1999/xlink" width="200" height="200"><path d="M435.2 533.44a349.76 349.76 0 0 1 349.76 349.76 42.56 42.56 0 1 1-85.12 0 264.64 264.64 0 0 0-529.28 0 42.56 42.56 0 1 1-85.12 0A349.76 349.76 0 0 1 435.2 533.44z" p-id="4015" fill="#182ca7"></path><path d="M435.2 149.44a234.56 234.56 0 1 1 0 469.12 234.56 234.56 0 0 1 0-469.12z m0 85.12a149.44 149.44 0 1 0 0 298.88 149.44 149.44 0 0 0 0-298.88zM688.512 197.12a42.56 42.56 0 0 1 58.304-14.848 234.56 234.56 0 0 1 60.608 351.872l-1.856 1.984 8.768 8.832c69.568 72.96 119.04 178.496 123.84 283.328l0.384 16.512a42.56 42.56 0 1 1-85.12 0c0-104.32-60.032-215.744-136.576-273.152a42.56 42.56 0 0 1 0-68.096 149.44 149.44 0 0 0-13.44-248.064 42.56 42.56 0 0 1-14.912-58.304z" p-id="4016" fill="#182ca7"></path></svg>