<?xml version="1.0" standalone="no"?><!DOCTYPE svg PUBLIC "-//W3C//DTD SVG 1.1//EN" "http://www.w3.org/Graphics/SVG/1.1/DTD/svg11.dtd"><svg t="1768268225432" class="icon" viewBox="0 0 1024 1024" version="1.1" xmlns="http://www.w3.org/2000/svg" p-id="2932" xmlns:xlink="http://www.w3.org/1999/xlink" width="200" height="200"><path d="M512 426.752a85.248 85.248 0 1 1 0 170.496 85.248 85.248 0 0 1 0-170.496z" p-id="2933" fill="#182ca7"></path><path d="M131.84 131.968c109.696-110.336 359.424-15.872 568.32 192 207.744 208.768 302.208 458.496 191.872 568.256-109.568 110.144-359.296 15.68-568.128-192.256C116.096 491.328 21.632 241.536 131.776 131.968z m508.096 252.224c-179.136-178.304-384.384-256-448-192.064-63.744 63.424 13.952 268.672 192.128 447.68 179.136 178.304 384.384 256 447.808 192.192 63.936-63.552-13.76-268.8-192-447.808z" p-id="2934" fill="#182ca7"></path><path d="M324.032 323.84c208.64-207.744 458.432-302.208 568-192 110.336 109.696 15.872 359.424-191.936 568.128-208.832 207.936-458.56 302.4-568.128 192.256-110.336-109.76-15.872-359.488 192-568.32zM831.872 192C768.448 128.192 563.2 205.888 384.192 384c-178.304 179.136-256 384.384-192.064 448 63.424 63.744 268.672-13.952 447.808-192.256l13.376-13.696C822.016 450.368 894.08 253.952 831.872 192z" p-id="2935" fill="#182ca7"></path></svg>