<?xml version="1.0" standalone="no"?><!DOCTYPE svg PUBLIC "-//W3C//DTD SVG 1.1//EN" "http://www.w3.org/Graphics/SVG/1.1/DTD/svg11.dtd"><svg t="1768268550975" class="icon" viewBox="0 0 1024 1024" version="1.1" xmlns="http://www.w3.org/2000/svg" p-id="3785" xmlns:xlink="http://www.w3.org/1999/xlink" width="200" height="200"><path d="M412.16 114.56a123.52 123.52 0 0 1 159.488 0.192L854.4 357.12c27.712 23.424 43.712 57.92 43.712 94.272v363.776a123.392 123.392 0 0 1-123.392 123.392H208.832a123.392 123.392 0 0 1-123.392-123.392V451.392c0-36.352 16-70.848 43.52-94.08L412.096 114.56z m104.32 65.024a38.208 38.208 0 0 0-49.216-0.192L184.128 422.144a38.272 38.272 0 0 0-13.568 29.248v363.776c0 21.12 17.152 38.272 38.272 38.272h565.888c21.12 0 38.272-17.152 38.272-38.272V451.392a38.4 38.4 0 0 0-13.76-29.44L516.48 179.584z" p-id="3786" fill="#182ca7"></path><path d="M614.4 630.208a42.688 42.688 0 0 1 0 85.312h-256a42.688 42.688 0 1 1 0-85.312h256zM614.4 502.208a42.688 42.688 0 0 1 0 85.312h-256a42.688 42.688 0 1 1 0-85.312h256z" p-id="3787" fill="#182ca7"></path><path d="M486.4 497.728c23.552 0 42.688 19.072 42.688 42.688v232.96a42.688 42.688 0 0 1-85.376 0v-232.96c0-23.616 19.136-42.688 42.688-42.688z" p-id="3788" fill="#182ca7"></path><path d="M540.544 411.648a42.688 42.688 0 0 1 67.392 52.288L532.096 561.664a42.688 42.688 0 1 1-67.392-52.352l75.84-97.664z" p-id="3789" fill="#182ca7"></path><path d="M392.768 415.808a42.688 42.688 0 0 1 60.352 1.088l64 66.368a42.688 42.688 0 1 1-61.44 59.2l-64-66.368a42.688 42.688 0 0 1 1.088-60.288z" p-id="3790" fill="#182ca7"></path></svg>