<?xml version="1.0" standalone="no"?><!DOCTYPE svg PUBLIC "-//W3C//DTD SVG 1.1//EN" "http://www.w3.org/Graphics/SVG/1.1/DTD/svg11.dtd"><svg t="1768268436492" class="icon" viewBox="0 0 1024 1024" version="1.1" xmlns="http://www.w3.org/2000/svg" p-id="3213" xmlns:xlink="http://www.w3.org/1999/xlink" width="200" height="200"><path d="M588.8 85.44c58.88 0 106.56 47.68 106.56 106.56v25.6c0 58.88-47.68 106.56-106.56 106.56H409.6c-58.88 0-106.56-47.68-106.56-106.56V192c0-58.88 47.68-106.56 106.56-106.56h179.2z m0 85.12H409.6A21.44 21.44 0 0 0 388.16 192v25.6c0 11.84 9.6 21.44 21.44 21.44h179.2c11.84 0 21.44-9.6 21.44-21.44V192a21.44 21.44 0 0 0-21.44-21.44z" p-id="3214" fill="#182ca7"></path><path d="M345.6 162.24a42.56 42.56 0 1 1 0 85.12H268.8a34.24 34.24 0 0 0-34.24 34.24v537.6c0 18.88 15.36 34.24 34.24 34.24h460.8c18.88 0 34.24-15.36 34.24-34.24v-19.2a42.56 42.56 0 1 1 85.12 0v19.2c0 65.92-53.44 119.36-119.36 119.36H268.8A119.36 119.36 0 0 1 149.44 819.2V281.6c0-65.92 53.44-119.36 119.36-119.36h76.8zM652.8 162.24h76.8c42.624 0 81.984 22.784 103.296 59.712a42.56 42.56 0 1 1-73.728 42.496 34.24 34.24 0 0 0-29.568-17.088h-76.8a42.56 42.56 0 1 1 0-85.12z" p-id="3215" fill="#182ca7"></path><path d="M384 699.84a42.56 42.56 0 1 1 0 85.12h-38.4a42.56 42.56 0 1 1 0-85.12H384zM713.856 390.592a124.16 124.16 0 0 1 175.552 175.552l-154.112 153.92a119.36 119.36 0 0 1-50.944 30.208l-110.208 32.128a61.76 61.76 0 0 1-76.608-76.544l32.128-110.272c5.632-19.2 16-36.736 30.208-50.944l153.984-154.048z m115.392 60.16a39.04 39.04 0 0 0-55.168 0L620.032 604.864a34.24 34.24 0 0 0-8.64 14.592l-20.224 69.312 69.312-20.224a34.24 34.24 0 0 0 10.24-4.928l4.416-3.712 154.112-153.984a39.04 39.04 0 0 0 0-55.168z" p-id="3216" fill="#182ca7"></path></svg>