<?xml version="1.0" standalone="no"?><!DOCTYPE svg PUBLIC "-//W3C//DTD SVG 1.1//EN" "http://www.w3.org/Graphics/SVG/1.1/DTD/svg11.dtd"><svg t="1768268452032" class="icon" viewBox="0 0 1024 1024" version="1.1" xmlns="http://www.w3.org/2000/svg" p-id="3386" xmlns:xlink="http://www.w3.org/1999/xlink" width="200" height="200"><path d="M512 648.64c23.488 0 42.56 19.072 42.56 42.56v192a42.56 42.56 0 1 1-85.12 0v-192c0-23.488 19.072-42.56 42.56-42.56zM665.6 571.84c23.488 0 42.56 19.072 42.56 42.56v268.8a42.56 42.56 0 1 1-85.12 0V614.4c0-23.488 19.072-42.56 42.56-42.56zM819.2 418.24c23.488 0 42.56 19.072 42.56 42.56v422.4a42.56 42.56 0 1 1-85.12 0V460.8c0-23.488 19.072-42.56 42.56-42.56zM865.92 161.92a42.56 42.56 0 1 1 60.16 60.16L594.112 554.048a61.76 61.76 0 0 1-87.424 0L396.8 444.16l-238.72 238.72a42.56 42.56 0 0 1-54.912 4.48l-5.248-4.48a42.56 42.56 0 0 1 0-60.16l255.232-255.232a61.76 61.76 0 0 1 87.36 0L550.4 477.44l315.52-315.52zM204.8 725.44c23.488 0 42.56 19.072 42.56 42.56v115.2a42.56 42.56 0 1 1-85.12 0V768c0-23.488 19.072-42.56 42.56-42.56z" p-id="3387" fill="#182ca7"></path><path d="M358.4 571.84c23.488 0 42.56 19.072 42.56 42.56v268.8a42.56 42.56 0 1 1-85.12 0V614.4c0-23.488 19.072-42.56 42.56-42.56z" p-id="3388" fill="#182ca7"></path></svg>