<?xml version="1.0" standalone="no"?><!DOCTYPE svg PUBLIC "-//W3C//DTD SVG 1.1//EN" "http://www.w3.org/Graphics/SVG/1.1/DTD/svg11.dtd"><svg t="1768268775872" class="icon" viewBox="0 0 1024 1024" version="1.1" xmlns="http://www.w3.org/2000/svg" p-id="4359" xmlns:xlink="http://www.w3.org/1999/xlink" width="200" height="200"><path d="M469.312 512.128a42.56 42.56 0 1 1 0 85.12H298.688a42.56 42.56 0 1 1 0-85.12h170.624zM810.688 341.44a42.56 42.56 0 0 1 0 85.12H640a42.56 42.56 0 1 1 0-85.12h170.688z" p-id="4360" fill="#182ca7"></path><path d="M128 85.44c23.488 0 42.56 19.072 42.56 42.56v682.688c0 23.616 19.2 42.752 42.752 42.752H896a42.56 42.56 0 1 1 0 85.12H213.312a127.872 127.872 0 0 1-127.872-127.872V128c0-23.488 19.072-42.56 42.56-42.56z" p-id="4361" fill="#182ca7"></path><path d="M746.688 170.752c58.88 0 106.56 47.744 106.56 106.56v384c0 58.88-47.744 106.56-106.56 106.56H704c-58.88 0-106.56-47.68-106.56-106.56v-384c0-58.88 47.68-106.56 106.56-106.56h42.688z m0 85.12H704a21.44 21.44 0 0 0-21.44 21.44v384c0 11.84 9.6 21.44 21.44 21.44h42.688c11.84 0 21.44-9.6 21.44-21.44v-384a21.44 21.44 0 0 0-21.44-21.44zM405.312 298.752c58.88 0 106.56 47.744 106.56 106.56v256c0 58.88-47.68 106.56-106.56 106.56h-42.624c-58.88 0-106.56-47.68-106.56-106.56v-256c0-58.88 47.68-106.56 106.56-106.56h42.624z m0 85.12h-42.624a21.44 21.44 0 0 0-21.44 21.44v256c0 11.84 9.6 21.44 21.44 21.44h42.624c11.84 0 21.44-9.6 21.44-21.44v-256a21.44 21.44 0 0 0-21.44-21.44z" p-id="4362" fill="#182ca7"></path></svg>