<?xml version="1.0" standalone="no"?><!DOCTYPE svg PUBLIC "-//W3C//DTD SVG 1.1//EN" "http://www.w3.org/Graphics/SVG/1.1/DTD/svg11.dtd"><svg t="1768268508761" class="icon" viewBox="0 0 1024 1024" version="1.1" xmlns="http://www.w3.org/2000/svg" p-id="3556" xmlns:xlink="http://www.w3.org/1999/xlink" width="200" height="200"><path d="M488.96 217.984a42.56 42.56 0 0 1 38.08-0.128l352.256 174.4c36.288 17.92 59.264 54.976 59.264 95.488V832c0 58.88-47.68 106.56-106.56 106.56H192c-58.88 0-106.56-47.68-106.56-106.56V487.36c0-40.192 22.656-76.992 58.496-95.104L488.96 217.984z m19.392 85.568L182.336 468.224a21.44 21.44 0 0 0-11.776 19.2V832c0 11.84 9.6 21.44 21.44 21.44h640c11.84 0 21.44-9.6 21.44-21.44V487.68a21.44 21.44 0 0 0-11.904-19.2L508.352 303.616z" p-id="3557" fill="#182ca7"></path><path d="M640 661.312a42.688 42.688 0 1 1 0 85.376H384a42.688 42.688 0 0 1 0-85.376h256zM640 533.312a42.688 42.688 0 1 1 0 85.376H384a42.688 42.688 0 0 1 0-85.376h256z" p-id="3558" fill="#182ca7"></path><path d="M469.312 571.52a42.688 42.688 0 1 1 85.376 0v232.96a42.688 42.688 0 0 1-85.376 0V571.52z" p-id="3559" fill="#182ca7"></path><path d="M614.848 440.192l5.312 3.456c18.752 14.272 22.4 40.96 8.192 59.776l-50.368 66.368a42.688 42.688 0 1 1-67.968-51.584l50.368-66.368a42.688 42.688 0 0 1 59.776-8.192l-5.312-3.456z" p-id="3560" fill="#182ca7"></path><path d="M478.72 448a42.688 42.688 0 0 0-61.44 59.264l64 66.368a42.688 42.688 0 1 0 61.44-59.264L478.72 448zM488.96 25.984a42.56 42.56 0 0 1 38.08-0.128l352.256 174.4a42.56 42.56 0 1 1-37.76 76.288L508.288 111.552 182.4 276.224a42.56 42.56 0 0 1-53.952-13.44l-3.2-5.376a42.56 42.56 0 0 1 18.752-57.152L488.96 25.984z" p-id="3561" fill="#182ca7"></path></svg>